# xmcd
#
# Track frame offsets:
#	150
#	14888
#	31206
#	52692
#	69477
#	84219
#	100583
#	122090
#
# Disc length: 1846 seconds
#
# Revision: 1
# Processed by: cddbd v1.5.2PL0 Copyright (c) Steve Scherf et al.
# Submitted via: audiograbber 1.83.01
#
DISCID=58073408
DTITLE=Reba McEntire - The Singing Macihne
DYEAR=1900
DGENRE=karaoke
TTITLE0=The Greatest Man I Never Knew
TTITLE1=For My Broken Heart
TTITLE2=Fancy
TTITLE3=Is There Life Out There
TTITLE4=The Greatest Man I Never Knew (vocal)
TTITLE5=For My Broken Heart (vocal)
TTITLE6=Fancy (vocal)
TTITLE7=Is There Life Out There (vocal)
EXTD=karaoke
EXTT0=
EXTT1=
EXTT2=
EXTT3=
EXTT4=
EXTT5=
EXTT6=
EXTT7=
PLAYORDER=
